<svg width="14" height="14" viewBox="0 0 14 14" fill="none" xmlns="http://www.w3.org/2000/svg">
<path d="M7 14C6.03167 14 5.12167 13.8162 4.27 13.4487C3.41833 13.0812 2.6775 12.5825 2.0475 11.9525C1.4175 11.3225 0.91875 10.5817 0.55125 9.73C0.18375 8.87833 0 7.96833 0 7C0 6.03167 0.18375 5.12167 0.55125 4.27C0.91875 3.41833 1.4175 2.6775 2.0475 2.0475C2.6775 1.4175 3.41833 0.91875 4.27 0.55125C5.12167 0.18375 6.03167 0 7 0C7.96833 0 8.87833 0.18375 9.73 0.55125C10.5817 0.91875 11.3225 1.4175 11.9525 2.0475C12.5825 2.6775 13.0812 3.41833 13.4487 4.27C13.8162 5.12167 14 6.03167 14 7C14 7.96833 13.8162 8.87833 13.4487 9.73C13.0812 10.5817 12.5825 11.3225 11.9525 11.9525C11.3225 12.5825 10.5817 13.0812 9.73 13.4487C8.87833 13.8162 7.96833 14 7 14ZM7 12.6C8.56333 12.6 9.8875 12.0575 10.9725 10.9725C12.0575 9.8875 12.6 8.56333 12.6 7C12.6 6.37 12.4979 5.76333 12.2937 5.18C12.0896 4.59667 11.795 4.06 11.41 3.57L3.57 11.41C4.06 11.795 4.59667 12.0896 5.18 12.2937C5.76333 12.4979 6.37 12.6 7 12.6ZM2.59 10.43L10.43 2.59C9.94 2.205 9.40333 1.91042 8.82 1.70625C8.23667 1.50208 7.63 1.4 7 1.4C5.43667 1.4 4.1125 1.9425 3.0275 3.0275C1.9425 4.1125 1.4 5.43667 1.4 7C1.4 7.63 1.50208 8.23667 1.70625 8.82C1.91042 9.40333 2.205 9.94 2.59 10.43Z" fill="#C3C6CD"/>
</svg>
