<svg width="24" height="24" viewBox="0 0 24 24" fill="none" xmlns="http://www.w3.org/2000/svg">
<mask id="mask0_1967_30091" style="mask-type:alpha" maskUnits="userSpaceOnUse" x="0" y="0" width="24" height="24">
<rect width="24" height="24" fill="#D9D9D9"/>
</mask>
<g mask="url(#mask0_1967_30091)">
<path d="M7.87308 16.1269C8.01794 16.2718 8.19358 16.3442 8.39998 16.3442C8.60638 16.3442 8.78201 16.2718 8.92688 16.1269L12 13.0538L15.0981 16.1519C15.2365 16.2903 15.408 16.3554 15.6125 16.3471C15.817 16.3387 15.9884 16.2653 16.1269 16.1269C16.2718 15.982 16.3442 15.8064 16.3442 15.6C16.3442 15.3936 16.2718 15.2179 16.1269 15.0731L13.0538 12L16.1519 8.90188C16.2903 8.76342 16.3554 8.59196 16.3471 8.38748C16.3387 8.18299 16.2653 8.01153 16.1269 7.87308C15.982 7.72819 15.8064 7.65575 15.6 7.65575C15.3936 7.65575 15.2179 7.72819 15.0731 7.87308L12 10.9461L8.90188 7.84808C8.76342 7.70961 8.59196 7.64454 8.38748 7.65288C8.18299 7.66121 8.01153 7.73461 7.87308 7.87308C7.72819 8.01794 7.65575 8.19358 7.65575 8.39998C7.65575 8.60638 7.72819 8.78201 7.87308 8.92688L10.9461 12L7.84808 15.0981C7.70961 15.2365 7.64454 15.408 7.65288 15.6125C7.66121 15.817 7.73461 15.9884 7.87308 16.1269ZM12 21.5C10.6807 21.5 9.44325 21.2519 8.2875 20.7557C7.13173 20.2596 6.12628 19.5839 5.27115 18.7288C4.41603 17.8737 3.7404 16.8682 3.24425 15.7125C2.74808 14.5567 2.5 13.3192 2.5 12C2.5 10.6807 2.74808 9.44325 3.24425 8.2875C3.7404 7.13173 4.41603 6.12628 5.27115 5.27115C6.12628 4.41603 7.13173 3.7404 8.2875 3.24425C9.44325 2.74808 10.6807 2.5 12 2.5C13.3192 2.5 14.5567 2.74808 15.7125 3.24425C16.8682 3.7404 17.8737 4.41603 18.7288 5.27115C19.5839 6.12628 20.2596 7.13173 20.7557 8.2875C21.2519 9.44325 21.5 10.6807 21.5 12C21.5 13.3192 21.2519 14.5567 20.7557 15.7125C20.2596 16.8682 19.5839 17.8737 18.7288 18.7288C17.8737 19.5839 16.8682 20.2596 15.7125 20.7557C14.5567 21.2519 13.3192 21.5 12 21.5ZM12 20C14.2166 20 16.1041 19.2208 17.6625 17.6625C19.2208 16.1041 20 14.2166 20 12C20 9.78331 19.2208 7.89581 17.6625 6.33748C16.1041 4.77914 14.2166 3.99997 12 3.99997C9.78331 3.99997 7.89581 4.77914 6.33748 6.33748C4.77914 7.89581 3.99998 9.78331 3.99998 12C3.99998 14.2166 4.77914 16.1041 6.33748 17.6625C7.89581 19.2208 9.78331 20 12 20Z" fill="white"/>
</g>
</svg>
