<svg width="18" height="18" viewBox="0 0 18 18" fill="none" xmlns="http://www.w3.org/2000/svg">
    <path fill-rule="evenodd" clip-rule="evenodd"
        d="M7.54906 3.54882C7.58032 3.51756 7.62271 3.5 7.66691 3.5H10.3336C10.3778 3.5 10.4202 3.51756 10.4514 3.54882C10.4827 3.58007 10.5002 3.62246 10.5002 3.66667V5.16666H7.50024V3.66667C7.50024 3.62246 7.5178 3.58007 7.54906 3.54882ZM6.99701 6.16666C6.99809 6.16666 6.99916 6.16667 7.00024 6.16667C7.00132 6.16667 7.0024 6.16666 7.00348 6.16666H10.997C10.9981 6.16666 10.9992 6.16667 11.0002 6.16667C11.0013 6.16667 11.0024 6.16666 11.0035 6.16666H13.1235L12.5019 13.6251C12.5008 13.6389 12.5002 13.6528 12.5002 13.6667C12.5002 13.8877 12.4124 14.0996 12.2561 14.2559C12.0998 14.4122 11.8879 14.5 11.6669 14.5H6.33352C6.11251 14.5 5.90055 14.4122 5.74427 14.2559C5.58799 14.0996 5.50019 13.8877 5.50019 13.6667C5.50019 13.6528 5.49961 13.6389 5.49846 13.6251L4.87692 6.16666H6.99701ZM6.50024 5.16666V3.66667C6.50024 3.35725 6.62316 3.0605 6.84195 2.84171C7.06075 2.62292 7.35749 2.5 7.66691 2.5H10.3336C10.643 2.5 10.9397 2.62292 11.1585 2.84171C11.3773 3.0605 11.5002 3.35725 11.5002 3.66667V5.16666H13.6608H13.6718H14.3337C14.6098 5.16666 14.8337 5.39051 14.8337 5.66666C14.8337 5.9428 14.6098 6.16666 14.3337 6.16666H14.1269L13.5001 13.6891C13.4942 14.1672 13.3017 14.6245 12.9632 14.963C12.6194 15.3068 12.1531 15.5 11.6669 15.5H6.33352C5.84729 15.5 5.38098 15.3068 5.03716 14.963C4.69864 14.6245 4.50617 14.1672 4.50033 13.6891L3.87346 6.16666H3.66699C3.39085 6.16666 3.16699 5.9428 3.16699 5.66666C3.16699 5.39051 3.39085 5.16666 3.66699 5.16666H4.32855H4.33962H6.50024ZM7.66699 7.83334C7.94313 7.83334 8.16699 8.0572 8.16699 8.33334V12.3333C8.16699 12.6095 7.94313 12.8333 7.66699 12.8333C7.39085 12.8333 7.16699 12.6095 7.16699 12.3333V8.33334C7.16699 8.0572 7.39085 7.83334 7.66699 7.83334ZM10.8335 8.33334C10.8335 8.0572 10.6096 7.83334 10.3335 7.83334C10.0574 7.83334 9.8335 8.0572 9.8335 8.33334V12.3333C9.8335 12.6095 10.0574 12.8333 10.3335 12.8333C10.6096 12.8333 10.8335 12.6095 10.8335 12.3333V8.33334Z"
        fill="#63686F" />
</svg>
